<mxfile host="app.diagrams.net" modified="2022-10-08T05:25:21.225Z" agent="5.0 (Macintosh; Intel Mac OS X 10_15_7) AppleWebKit/605.1.15 (KHTML, like Gecko) Version/16.0 Safari/605.1.15" etag="tg8Orw7TtIU5xGaOCyWd" version="20.4.0" type="github">
  <diagram id="p27A1T7o6IP-pXBTxmKg" name="Page-1">
    <mxGraphModel dx="1018" dy="617" grid="1" gridSize="10" guides="1" tooltips="1" connect="1" arrows="1" fold="1" page="1" pageScale="1" pageWidth="827" pageHeight="1169" math="0" shadow="0">
      <root>
        <mxCell id="0" />
        <mxCell id="1" parent="0" />
        <mxCell id="8AE1FNMvlNXw74H_7bcK-1" value="&lt;span style=&quot;font-weight: normal;&quot;&gt;CAPTAIN&lt;/span&gt;" style="ellipse;whiteSpace=wrap;html=1;fontStyle=1" vertex="1" parent="1">
          <mxGeometry x="510" y="560" width="60" height="40" as="geometry" />
        </mxCell>
        <mxCell id="8AE1FNMvlNXw74H_7bcK-6" value="COACH" style="ellipse;whiteSpace=wrap;html=1;" vertex="1" parent="1">
          <mxGeometry x="440" y="505" width="60" height="45" as="geometry" />
        </mxCell>
        <mxCell id="8AE1FNMvlNXw74H_7bcK-7" value="NAME" style="ellipse;whiteSpace=wrap;html=1;" vertex="1" parent="1">
          <mxGeometry x="557" y="505" width="70" height="40" as="geometry" />
        </mxCell>
        <mxCell id="8AE1FNMvlNXw74H_7bcK-8" value="CITY" style="ellipse;whiteSpace=wrap;html=1;" vertex="1" parent="1">
          <mxGeometry x="290" y="370" width="60" height="40" as="geometry" />
        </mxCell>
        <mxCell id="8AE1FNMvlNXw74H_7bcK-9" value="TEAM" style="rounded=0;whiteSpace=wrap;html=1;" vertex="1" parent="1">
          <mxGeometry x="410" y="360" width="120" height="60" as="geometry" />
        </mxCell>
        <mxCell id="8AE1FNMvlNXw74H_7bcK-10" value="" style="endArrow=none;html=1;rounded=0;entryX=1;entryY=0.5;entryDx=0;entryDy=0;exitX=0;exitY=0.5;exitDx=0;exitDy=0;" edge="1" parent="1" source="8AE1FNMvlNXw74H_7bcK-9" target="8AE1FNMvlNXw74H_7bcK-8">
          <mxGeometry width="50" height="50" relative="1" as="geometry">
            <mxPoint x="660" y="570" as="sourcePoint" />
            <mxPoint x="380" y="420" as="targetPoint" />
          </mxGeometry>
        </mxCell>
        <mxCell id="8AE1FNMvlNXw74H_7bcK-11" value="" style="endArrow=none;html=1;rounded=0;entryX=0.5;entryY=1;entryDx=0;entryDy=0;" edge="1" parent="1" source="8AE1FNMvlNXw74H_7bcK-6" target="8AE1FNMvlNXw74H_7bcK-9">
          <mxGeometry width="50" height="50" relative="1" as="geometry">
            <mxPoint x="457" y="565" as="sourcePoint" />
            <mxPoint x="462" y="455" as="targetPoint" />
          </mxGeometry>
        </mxCell>
        <mxCell id="8AE1FNMvlNXw74H_7bcK-13" value="" style="endArrow=none;html=1;rounded=0;exitX=0.5;exitY=0;exitDx=0;exitDy=0;entryX=0.75;entryY=1;entryDx=0;entryDy=0;" edge="1" parent="1" source="8AE1FNMvlNXw74H_7bcK-1" target="8AE1FNMvlNXw74H_7bcK-9">
          <mxGeometry width="50" height="50" relative="1" as="geometry">
            <mxPoint x="757" y="795" as="sourcePoint" />
            <mxPoint x="492" y="435" as="targetPoint" />
          </mxGeometry>
        </mxCell>
        <mxCell id="8AE1FNMvlNXw74H_7bcK-14" value="" style="endArrow=none;html=1;rounded=0;entryX=0.5;entryY=0;entryDx=0;entryDy=0;exitX=1;exitY=1;exitDx=0;exitDy=0;" edge="1" parent="1" source="8AE1FNMvlNXw74H_7bcK-9" target="8AE1FNMvlNXw74H_7bcK-7">
          <mxGeometry width="50" height="50" relative="1" as="geometry">
            <mxPoint x="597" y="585" as="sourcePoint" />
            <mxPoint x="807" y="745" as="targetPoint" />
          </mxGeometry>
        </mxCell>
        <mxCell id="8AE1FNMvlNXw74H_7bcK-17" value="PLAYER" style="rounded=0;whiteSpace=wrap;html=1;" vertex="1" parent="1">
          <mxGeometry x="184" y="160" width="120" height="60" as="geometry" />
        </mxCell>
        <mxCell id="8AE1FNMvlNXw74H_7bcK-23" value="INJURY RECORDS" style="ellipse;whiteSpace=wrap;html=1;" vertex="1" parent="1">
          <mxGeometry x="210" y="20" width="70" height="50" as="geometry" />
        </mxCell>
        <mxCell id="8AE1FNMvlNXw74H_7bcK-24" value="SKILL LEVEL" style="ellipse;whiteSpace=wrap;html=1;" vertex="1" parent="1">
          <mxGeometry x="370" y="810" width="70" height="40" as="geometry" />
        </mxCell>
        <mxCell id="8AE1FNMvlNXw74H_7bcK-25" value="POSITION" style="ellipse;whiteSpace=wrap;html=1;" vertex="1" parent="1">
          <mxGeometry x="114" y="25" width="70" height="40" as="geometry" />
        </mxCell>
        <mxCell id="8AE1FNMvlNXw74H_7bcK-26" value="NAME" style="ellipse;whiteSpace=wrap;html=1;" vertex="1" parent="1">
          <mxGeometry x="40" y="170" width="70" height="40" as="geometry" />
        </mxCell>
        <mxCell id="8AE1FNMvlNXw74H_7bcK-33" value="" style="endArrow=none;html=1;rounded=0;exitX=0;exitY=1;exitDx=0;exitDy=0;entryX=1;entryY=0;entryDx=0;entryDy=0;" edge="1" parent="1" source="8AE1FNMvlNXw74H_7bcK-17" target="8AE1FNMvlNXw74H_7bcK-82">
          <mxGeometry width="50" height="50" relative="1" as="geometry">
            <mxPoint x="190" y="180" as="sourcePoint" />
            <mxPoint x="218.84328417619759" y="350.1209439162185" as="targetPoint" />
          </mxGeometry>
        </mxCell>
        <mxCell id="8AE1FNMvlNXw74H_7bcK-34" value="" style="endArrow=none;html=1;rounded=0;entryX=0;entryY=0;entryDx=0;entryDy=0;exitX=0.5;exitY=1;exitDx=0;exitDy=0;" edge="1" parent="1" source="8AE1FNMvlNXw74H_7bcK-25" target="8AE1FNMvlNXw74H_7bcK-17">
          <mxGeometry width="50" height="50" relative="1" as="geometry">
            <mxPoint x="190" y="180" as="sourcePoint" />
            <mxPoint x="240" y="130" as="targetPoint" />
          </mxGeometry>
        </mxCell>
        <mxCell id="8AE1FNMvlNXw74H_7bcK-35" value="" style="endArrow=none;html=1;rounded=0;exitX=0;exitY=0.5;exitDx=0;exitDy=0;entryX=1;entryY=0.5;entryDx=0;entryDy=0;" edge="1" parent="1" source="8AE1FNMvlNXw74H_7bcK-17" target="8AE1FNMvlNXw74H_7bcK-26">
          <mxGeometry width="50" height="50" relative="1" as="geometry">
            <mxPoint x="190" y="180" as="sourcePoint" />
            <mxPoint x="240" y="130" as="targetPoint" />
          </mxGeometry>
        </mxCell>
        <mxCell id="8AE1FNMvlNXw74H_7bcK-36" value="CAPTAIN" style="ellipse;whiteSpace=wrap;html=1;" vertex="1" parent="1">
          <mxGeometry x="304" y="30" width="60" height="40" as="geometry" />
        </mxCell>
        <mxCell id="8AE1FNMvlNXw74H_7bcK-38" value="" style="endArrow=none;dashed=1;html=1;dashPattern=1 3;strokeWidth=2;rounded=0;exitX=0.5;exitY=1;exitDx=0;exitDy=0;entryX=1;entryY=0;entryDx=0;entryDy=0;" edge="1" parent="1" source="8AE1FNMvlNXw74H_7bcK-36" target="8AE1FNMvlNXw74H_7bcK-17">
          <mxGeometry width="50" height="50" relative="1" as="geometry">
            <mxPoint x="190" y="180" as="sourcePoint" />
            <mxPoint x="240" y="130" as="targetPoint" />
          </mxGeometry>
        </mxCell>
        <mxCell id="8AE1FNMvlNXw74H_7bcK-39" value="SET OF PLAYERS" style="ellipse;whiteSpace=wrap;html=1;" vertex="1" parent="1">
          <mxGeometry x="320" y="465" width="70" height="40" as="geometry" />
        </mxCell>
        <mxCell id="8AE1FNMvlNXw74H_7bcK-40" value="" style="endArrow=none;html=1;rounded=0;exitX=0.5;exitY=0;exitDx=0;exitDy=0;entryX=0;entryY=1;entryDx=0;entryDy=0;" edge="1" parent="1" source="8AE1FNMvlNXw74H_7bcK-39" target="8AE1FNMvlNXw74H_7bcK-9">
          <mxGeometry width="50" height="50" relative="1" as="geometry">
            <mxPoint x="660" y="570" as="sourcePoint" />
            <mxPoint x="710" y="520" as="targetPoint" />
          </mxGeometry>
        </mxCell>
        <mxCell id="8AE1FNMvlNXw74H_7bcK-45" value="PLAYER2" style="ellipse;whiteSpace=wrap;html=1;" vertex="1" parent="1">
          <mxGeometry x="320" y="590" width="60" height="40" as="geometry" />
        </mxCell>
        <mxCell id="8AE1FNMvlNXw74H_7bcK-46" value="PLAYER1" style="ellipse;whiteSpace=wrap;html=1;" vertex="1" parent="1">
          <mxGeometry x="240" y="520" width="60" height="40" as="geometry" />
        </mxCell>
        <mxCell id="8AE1FNMvlNXw74H_7bcK-47" value="" style="endArrow=none;html=1;rounded=0;exitX=1;exitY=0.5;exitDx=0;exitDy=0;entryX=0.286;entryY=0.95;entryDx=0;entryDy=0;entryPerimeter=0;" edge="1" parent="1" source="8AE1FNMvlNXw74H_7bcK-46" target="8AE1FNMvlNXw74H_7bcK-39">
          <mxGeometry width="50" height="50" relative="1" as="geometry">
            <mxPoint x="310" y="540" as="sourcePoint" />
            <mxPoint x="360" y="530" as="targetPoint" />
          </mxGeometry>
        </mxCell>
        <mxCell id="8AE1FNMvlNXw74H_7bcK-51" value="" style="endArrow=none;html=1;rounded=0;entryX=0.5;entryY=1;entryDx=0;entryDy=0;exitX=0.5;exitY=0;exitDx=0;exitDy=0;" edge="1" parent="1" source="8AE1FNMvlNXw74H_7bcK-45" target="8AE1FNMvlNXw74H_7bcK-39">
          <mxGeometry width="50" height="50" relative="1" as="geometry">
            <mxPoint x="600" y="560" as="sourcePoint" />
            <mxPoint x="650" y="510" as="targetPoint" />
            <Array as="points" />
          </mxGeometry>
        </mxCell>
        <mxCell id="8AE1FNMvlNXw74H_7bcK-69" value="NHL" style="rounded=0;whiteSpace=wrap;html=1;" vertex="1" parent="1">
          <mxGeometry x="660" y="160" width="120" height="60" as="geometry" />
        </mxCell>
        <mxCell id="8AE1FNMvlNXw74H_7bcK-71" value="TEAMS" style="ellipse;whiteSpace=wrap;html=1;" vertex="1" parent="1">
          <mxGeometry x="670" y="80" width="100" height="40" as="geometry" />
        </mxCell>
        <mxCell id="8AE1FNMvlNXw74H_7bcK-72" value="" style="endArrow=none;html=1;rounded=0;entryX=0.5;entryY=1;entryDx=0;entryDy=0;exitX=0.5;exitY=0;exitDx=0;exitDy=0;" edge="1" parent="1" source="8AE1FNMvlNXw74H_7bcK-69" target="8AE1FNMvlNXw74H_7bcK-71">
          <mxGeometry width="50" height="50" relative="1" as="geometry">
            <mxPoint x="700" y="170" as="sourcePoint" />
            <mxPoint x="750" y="120" as="targetPoint" />
          </mxGeometry>
        </mxCell>
        <mxCell id="8AE1FNMvlNXw74H_7bcK-81" value="" style="endArrow=none;html=1;rounded=0;entryX=0.5;entryY=0;entryDx=0;entryDy=0;exitX=0.5;exitY=1;exitDx=0;exitDy=0;" edge="1" parent="1" source="8AE1FNMvlNXw74H_7bcK-23" target="8AE1FNMvlNXw74H_7bcK-17">
          <mxGeometry width="50" height="50" relative="1" as="geometry">
            <mxPoint x="280" y="260" as="sourcePoint" />
            <mxPoint x="330" y="210" as="targetPoint" />
          </mxGeometry>
        </mxCell>
        <mxCell id="8AE1FNMvlNXw74H_7bcK-82" value="COACH" style="ellipse;whiteSpace=wrap;html=1;" vertex="1" parent="1">
          <mxGeometry x="50" y="260" width="90" height="40" as="geometry" />
        </mxCell>
        <mxCell id="8AE1FNMvlNXw74H_7bcK-83" value="OWNERSHIP" style="rhombus;whiteSpace=wrap;html=1;" vertex="1" parent="1">
          <mxGeometry x="557" y="235" width="90" height="90" as="geometry" />
        </mxCell>
        <mxCell id="8AE1FNMvlNXw74H_7bcK-84" value="" style="endArrow=none;html=1;rounded=0;exitX=1;exitY=0;exitDx=0;exitDy=0;entryX=0;entryY=1;entryDx=0;entryDy=0;" edge="1" parent="1" source="8AE1FNMvlNXw74H_7bcK-83" target="8AE1FNMvlNXw74H_7bcK-69">
          <mxGeometry width="50" height="50" relative="1" as="geometry">
            <mxPoint x="390" y="320" as="sourcePoint" />
            <mxPoint x="440" y="270" as="targetPoint" />
          </mxGeometry>
        </mxCell>
        <mxCell id="8AE1FNMvlNXw74H_7bcK-85" value="" style="shape=link;html=1;rounded=0;exitX=1;exitY=0;exitDx=0;exitDy=0;" edge="1" parent="1" source="8AE1FNMvlNXw74H_7bcK-9" target="8AE1FNMvlNXw74H_7bcK-83">
          <mxGeometry width="100" relative="1" as="geometry">
            <mxPoint x="470" y="260" as="sourcePoint" />
            <mxPoint x="470" y="260" as="targetPoint" />
          </mxGeometry>
        </mxCell>
        <mxCell id="8AE1FNMvlNXw74H_7bcK-86" value="1" style="text;html=1;strokeColor=none;fillColor=none;align=center;verticalAlign=middle;whiteSpace=wrap;rounded=0;" vertex="1" parent="1">
          <mxGeometry x="640" y="220" width="38" height="30" as="geometry" />
        </mxCell>
        <mxCell id="8AE1FNMvlNXw74H_7bcK-91" value="N" style="text;html=1;strokeColor=none;fillColor=none;align=center;verticalAlign=middle;whiteSpace=wrap;rounded=0;" vertex="1" parent="1">
          <mxGeometry x="537" y="360" width="33" height="20" as="geometry" />
        </mxCell>
        <mxCell id="8AE1FNMvlNXw74H_7bcK-94" value="PLAYS" style="rhombus;whiteSpace=wrap;html=1;" vertex="1" parent="1">
          <mxGeometry x="340" y="235" width="80" height="80" as="geometry" />
        </mxCell>
        <mxCell id="8AE1FNMvlNXw74H_7bcK-95" value="" style="endArrow=none;html=1;rounded=0;exitX=0.5;exitY=0;exitDx=0;exitDy=0;entryX=1;entryY=1;entryDx=0;entryDy=0;" edge="1" parent="1" source="8AE1FNMvlNXw74H_7bcK-9" target="8AE1FNMvlNXw74H_7bcK-94">
          <mxGeometry width="50" height="50" relative="1" as="geometry">
            <mxPoint x="440" y="330" as="sourcePoint" />
            <mxPoint x="490" y="280" as="targetPoint" />
          </mxGeometry>
        </mxCell>
        <mxCell id="8AE1FNMvlNXw74H_7bcK-96" value="" style="shape=link;html=1;rounded=0;exitX=1;exitY=1;exitDx=0;exitDy=0;" edge="1" parent="1" source="8AE1FNMvlNXw74H_7bcK-17" target="8AE1FNMvlNXw74H_7bcK-94">
          <mxGeometry width="100" relative="1" as="geometry">
            <mxPoint x="330" y="200" as="sourcePoint" />
            <mxPoint x="430" y="200" as="targetPoint" />
          </mxGeometry>
        </mxCell>
        <mxCell id="8AE1FNMvlNXw74H_7bcK-97" value="N" style="text;html=1;strokeColor=none;fillColor=none;align=center;verticalAlign=middle;whiteSpace=wrap;rounded=0;" vertex="1" parent="1">
          <mxGeometry x="317" y="210" width="33" height="20" as="geometry" />
        </mxCell>
        <mxCell id="8AE1FNMvlNXw74H_7bcK-98" value="1" style="text;html=1;strokeColor=none;fillColor=none;align=center;verticalAlign=middle;whiteSpace=wrap;rounded=0;" vertex="1" parent="1">
          <mxGeometry x="414" y="330" width="38" height="30" as="geometry" />
        </mxCell>
        <mxCell id="8AE1FNMvlNXw74H_7bcK-100" value="MATCHES PLAYED" style="rounded=0;whiteSpace=wrap;html=1;" vertex="1" parent="1">
          <mxGeometry x="440" y="110" width="90" height="40" as="geometry" />
        </mxCell>
        <mxCell id="8AE1FNMvlNXw74H_7bcK-101" value="" style="endArrow=none;html=1;rounded=0;entryX=0;entryY=0;entryDx=0;entryDy=0;exitX=0.5;exitY=1;exitDx=0;exitDy=0;" edge="1" parent="1" source="8AE1FNMvlNXw74H_7bcK-108" target="8AE1FNMvlNXw74H_7bcK-100">
          <mxGeometry width="50" height="50" relative="1" as="geometry">
            <mxPoint x="440" y="70" as="sourcePoint" />
            <mxPoint x="490" y="290" as="targetPoint" />
          </mxGeometry>
        </mxCell>
        <mxCell id="8AE1FNMvlNXw74H_7bcK-104" value="" style="endArrow=none;html=1;rounded=0;exitX=0.5;exitY=0;exitDx=0;exitDy=0;" edge="1" parent="1" source="8AE1FNMvlNXw74H_7bcK-100">
          <mxGeometry width="50" height="50" relative="1" as="geometry">
            <mxPoint x="450" y="80" as="sourcePoint" />
            <mxPoint x="480" y="30" as="targetPoint" />
          </mxGeometry>
        </mxCell>
        <mxCell id="8AE1FNMvlNXw74H_7bcK-105" value="" style="endArrow=none;html=1;rounded=0;exitX=1;exitY=0;exitDx=0;exitDy=0;" edge="1" parent="1" source="8AE1FNMvlNXw74H_7bcK-100" target="8AE1FNMvlNXw74H_7bcK-106">
          <mxGeometry width="50" height="50" relative="1" as="geometry">
            <mxPoint x="495" y="120" as="sourcePoint" />
            <mxPoint x="570" y="60" as="targetPoint" />
          </mxGeometry>
        </mxCell>
        <mxCell id="8AE1FNMvlNXw74H_7bcK-106" value="HOST TEAM" style="ellipse;whiteSpace=wrap;html=1;" vertex="1" parent="1">
          <mxGeometry x="510" y="20" width="60" height="30" as="geometry" />
        </mxCell>
        <mxCell id="8AE1FNMvlNXw74H_7bcK-107" value="GUEST TEAM" style="ellipse;whiteSpace=wrap;html=1;" vertex="1" parent="1">
          <mxGeometry x="450" width="50" height="30" as="geometry" />
        </mxCell>
        <mxCell id="8AE1FNMvlNXw74H_7bcK-108" value="DATE" style="ellipse;whiteSpace=wrap;html=1;" vertex="1" parent="1">
          <mxGeometry x="400" y="35" width="50" height="30" as="geometry" />
        </mxCell>
        <mxCell id="8AE1FNMvlNXw74H_7bcK-109" value="SCORE" style="ellipse;whiteSpace=wrap;html=1;" vertex="1" parent="1">
          <mxGeometry x="561" y="65" width="62" height="30" as="geometry" />
        </mxCell>
        <mxCell id="8AE1FNMvlNXw74H_7bcK-110" value="" style="endArrow=none;html=1;rounded=0;entryX=1;entryY=0.5;entryDx=0;entryDy=0;exitX=0.5;exitY=1;exitDx=0;exitDy=0;" edge="1" parent="1" source="8AE1FNMvlNXw74H_7bcK-109" target="8AE1FNMvlNXw74H_7bcK-100">
          <mxGeometry width="50" height="50" relative="1" as="geometry">
            <mxPoint x="440" y="340" as="sourcePoint" />
            <mxPoint x="490" y="290" as="targetPoint" />
          </mxGeometry>
        </mxCell>
        <mxCell id="8AE1FNMvlNXw74H_7bcK-111" value="MATCH PLAYS" style="rhombus;whiteSpace=wrap;html=1;" vertex="1" parent="1">
          <mxGeometry x="450" y="195" width="80" height="80" as="geometry" />
        </mxCell>
        <mxCell id="8AE1FNMvlNXw74H_7bcK-112" value="" style="endArrow=none;html=1;rounded=0;entryX=0.5;entryY=0;entryDx=0;entryDy=0;exitX=0.5;exitY=1;exitDx=0;exitDy=0;" edge="1" parent="1" source="8AE1FNMvlNXw74H_7bcK-100" target="8AE1FNMvlNXw74H_7bcK-111">
          <mxGeometry width="50" height="50" relative="1" as="geometry">
            <mxPoint x="440" y="350" as="sourcePoint" />
            <mxPoint x="490" y="300" as="targetPoint" />
          </mxGeometry>
        </mxCell>
        <mxCell id="8AE1FNMvlNXw74H_7bcK-113" value="1" style="text;html=1;strokeColor=none;fillColor=none;align=center;verticalAlign=middle;whiteSpace=wrap;rounded=0;" vertex="1" parent="1">
          <mxGeometry x="490" y="150" width="33" height="20" as="geometry" />
        </mxCell>
        <mxCell id="8AE1FNMvlNXw74H_7bcK-114" value="" style="shape=link;html=1;rounded=0;exitX=0.5;exitY=1;exitDx=0;exitDy=0;entryX=0.75;entryY=0;entryDx=0;entryDy=0;" edge="1" parent="1" source="8AE1FNMvlNXw74H_7bcK-111" target="8AE1FNMvlNXw74H_7bcK-9">
          <mxGeometry width="100" relative="1" as="geometry">
            <mxPoint x="450" y="310" as="sourcePoint" />
            <mxPoint x="550" y="310" as="targetPoint" />
          </mxGeometry>
        </mxCell>
        <mxCell id="8AE1FNMvlNXw74H_7bcK-115" value="N" style="text;html=1;strokeColor=none;fillColor=none;align=center;verticalAlign=middle;whiteSpace=wrap;rounded=0;" vertex="1" parent="1">
          <mxGeometry x="501" y="330" width="29" height="15" as="geometry" />
        </mxCell>
      </root>
    </mxGraphModel>
  </diagram>
</mxfile>
